<svg id="Capa_1" enable-background="new 0 0 512 512" height="512" viewBox="0 0 512 512" width="512" xmlns="http://www.w3.org/2000/svg"><g><g><path d="m400.377 347.877c-5.232 0-10.313-2.743-13.068-7.623-4.066-7.202-1.53-16.334 5.662-20.41.29-.165 29.272-16.849 52.512-46.555 29.795-38.086 36.723-79.333 20.591-122.596-11.688-31.344-29.673-45.744-53.427-42.804-43.532 5.387-98.562 68.5-107.051 144.9-.914 8.229-8.332 14.159-16.553 13.243-8.228-.914-14.158-8.326-13.243-16.553 4.591-41.312 21.29-82.117 47.022-114.897 25.298-32.228 56.696-52.801 86.144-56.445 18.188-2.253 35.435 1.949 49.885 12.145 15.032 10.606 26.915 27.408 35.315 49.938 19.866 53.277 10.974 105.964-25.715 152.365-26.938 34.069-59.351 52.584-60.718 53.355-2.329 1.313-4.859 1.937-7.356 1.937z" fill="#c3bec6"/><path d="m111.621 347.877c5.232 0 10.313-2.743 13.068-7.623 4.066-7.202 1.53-16.334-5.662-20.41-.29-.165-29.272-16.849-52.512-46.555-29.795-38.086-36.723-79.333-20.591-122.596 11.688-31.344 29.673-45.744 53.427-42.804 43.532 5.387 98.562 68.5 107.051 144.9.914 8.229 8.332 14.159 16.553 13.243 8.228-.914 14.158-8.326 13.243-16.553-4.591-41.312-21.29-82.117-47.022-114.897-25.298-32.228-56.696-52.801-86.144-56.445-18.188-2.253-35.435 1.949-49.885 12.145-15.032 10.606-26.915 27.408-35.315 49.938-19.865 53.275-10.974 105.962 25.716 152.363 26.938 34.069 59.351 52.584 60.718 53.355 2.328 1.315 4.858 1.939 7.355 1.939z" fill="#c3bec6"/><path d="m424.736 316.703c0-93.281-75.62-168.901-168.901-168.901s-168.901 75.62-168.901 168.901 75.62 117.759 168.901 117.759 168.901-24.478 168.901-117.759z" fill="#f9f6f9"/><path d="m152.131 318.382c0 62.339 18.258 95.836 45.99 112.156-64.857-9.963-111.186-40.823-111.186-113.834 0-79.278 54.614-145.793 128.275-163.982-37.086 27.431-63.079 91.279-63.079 165.66z" fill="#e2dfe2"/></g><g><path d="m501.156 137.619c-8.946-23.978-21.738-41.957-38.016-53.438-2.43-1.716-4.976-3.298-7.564-4.703-3.646-1.977-8.192-.626-10.168 3.014-1.975 3.64-.626 8.192 3.013 10.168 2.076 1.126 4.118 2.397 6.074 3.776 13.767 9.71 24.739 25.329 32.61 46.424 18.893 50.678 10.398 100.84-24.571 145.064-10.021 12.669-20.843 23.109-30.351 31.161.011-.797.029-1.589.029-2.393 0-5.735-.285-11.404-.823-17 7.395-6.971 14.102-14.284 19.965-21.782 31.511-40.27 38.817-83.947 21.714-129.821-8.979-24.074-26.91-51.876-61.363-47.616-26.279 3.252-55.866 25.21-78.36 57.818-4.555-2.238-9.22-4.285-13.985-6.131 2.973-4.438 6.089-8.773 9.349-12.929 24.068-30.673 53.645-50.22 81.139-53.627 4.491-.551 8.935-.676 13.214-.373 4.119.299 7.716-2.817 8.011-6.948.293-4.131-2.818-7.718-6.949-8.011-5.237-.373-10.655-.223-16.112.448-31.402 3.892-64.608 25.489-91.102 59.254-4.318 5.503-8.418 11.283-12.249 17.226-15.51-4.474-31.889-6.879-48.821-6.879-16.833 0-33.122 2.374-48.553 6.798-3.829-5.941-7.912-11.694-12.198-17.146-26.513-33.768-59.719-55.365-91.107-59.255-20.055-2.479-39.119 2.176-55.122 13.465-16.285 11.488-29.075 29.467-38.014 53.436-20.828 55.853-11.542 111.043 26.852 159.604 14.885 18.826 31.359 33 43.347 42.048 4.127 28.16 16.329 50.726 36.445 67.259 3.201 2.63 7.925 2.17 10.555-1.032 2.629-3.199 2.168-7.925-1.031-10.554-21.909-18.007-32.558-43.604-32.558-78.253 0-88.982 72.396-161.374 161.384-161.374 88.982 0 161.374 72.392 161.374 161.374 0 75.212-51.278 110.242-161.374 110.242-44.91 0-79.261-5.696-105.017-17.414-3.771-1.718-8.215-.048-9.931 3.72-1.715 3.77-.049 8.216 3.721 9.931 27.746 12.623 64.129 18.76 111.227 18.76 54.07 0 94.363-8.149 123.181-24.913 29.165-16.965 46.437-42.969 51.561-77.463 12.097-9.103 28.724-23.374 43.716-42.328 38.396-48.558 47.684-103.748 26.858-159.607zm-451.693 150.303c-34.967-44.226-43.462-94.388-24.564-145.064 7.864-21.087 18.835-36.705 32.607-46.421 12.904-9.103 28.334-12.852 44.635-10.837 27.487 3.406 57.066 22.954 81.156 53.637 3.228 4.105 6.321 8.406 9.281 12.822-4.772 1.84-9.446 3.879-14.009 6.112-22.478-32.536-52.031-54.449-78.273-57.7-34.452-4.257-52.392 23.542-61.362 47.617-17.102 45.867-9.8 89.545 21.705 129.822 5.813 7.421 12.42 14.638 19.668 21.496-.556 5.688-.848 11.452-.848 17.283 0 .708.013 1.407.022 2.109-9.404-7.986-20.098-18.328-30.018-30.876zm33.63-6.934c-3.804-4.022-7.368-8.138-10.645-12.32-28.07-35.885-34.618-74.691-19.462-115.34 10.449-28.043 25.332-40.457 45.466-37.971 21.441 2.656 47.109 22.022 66.856 50.025-41.595 24.978-72.101 66.608-82.215 115.606zm263.499-115.473c19.766-28.082 45.475-47.5 66.955-50.158 20.138-2.488 35.01 9.93 45.469 37.972 15.156 40.651 8.604 79.456-19.474 115.34-3.34 4.271-6.992 8.481-10.904 12.599-10.038-49.031-40.488-90.712-82.046-115.753z"/><path d="m137.343 281.556c77.52-21.188 159.468-21.187 236.986 0 .662.181 1.327.268 1.982.268 3.295 0 6.317-2.191 7.228-5.523 1.093-3.995-1.262-8.119-5.256-9.21-80.107-21.896-164.789-21.895-244.894 0-3.994 1.092-6.349 5.215-5.256 9.21 1.091 3.995 5.215 6.348 9.21 5.255z"/><path d="m135.366 327.08h240.94c4.142 0 7.499-3.357 7.499-7.499 0-4.141-3.357-7.499-7.499-7.499h-240.94c-4.142 0-7.499 3.357-7.499 7.499 0 4.141 3.357 7.499 7.499 7.499z"/><path d="m378.283 372.072c3.994-1.092 6.349-5.215 5.256-9.21-1.092-3.996-5.218-6.351-9.21-5.256-77.518 21.188-159.466 21.188-236.986 0-3.992-1.092-8.119 1.261-9.21 5.256-1.093 3.995 1.262 8.119 5.256 9.21 40.053 10.948 81.25 16.422 122.448 16.422 41.195 0 82.393-5.474 122.446-16.422z"/></g></g></svg>