<svg id="Layer_1" enable-background="new 0 0 512.001 512.001" height="512" viewBox="0 0 512.001 512.001" width="512" xmlns="http://www.w3.org/2000/svg"><g><path d="m281.637 213.823c1.875 1.875 4.419 2.929 7.071 2.929s5.196-1.054 7.071-2.929l21.212-21.213c11.697 11.695 30.729 11.696 42.427 0l84.853-84.853c11.697-11.697 11.697-30.729 0-42.427l-56.568-56.567c-5.651-5.651-13.185-8.763-21.214-8.763s-15.562 3.112-21.213 8.762l-84.853 84.853c-11.697 11.697-11.697 30.729 0 42.427l-21.213 21.212c-1.875 1.875-2.929 4.419-2.929 7.071s1.054 5.196 2.929 7.071zm84.853-193.823c2.687 0 5.197 1.031 7.07 2.905l56.569 56.569c1.874 1.873 2.905 4.384 2.905 7.071s-1.031 5.198-2.905 7.071l-12.929 12.928-70.71-70.71 12.93-12.93c1.872-1.872 4.383-2.904 7.07-2.904zm-84.853 123.113c1.875-1.875 2.929-4.419 2.929-7.071s-1.054-5.196-2.929-7.071l-7.071-7.071c-1.874-1.873-2.905-4.384-2.905-7.071s1.031-5.198 2.905-7.071l57.781-57.781 70.71 70.71-57.781 57.781c-3.898 3.9-10.244 3.899-14.142 0l-7.071-7.071c-1.875-1.875-4.419-2.929-7.071-2.929s-5.196 1.054-7.071 2.929l-21.212 21.213-28.284-28.284z"/><path d="m321.74 145.436 10.607-10.607 10.606 10.607 14.142-14.143-10.606-10.606 10.606-10.606-14.142-14.143-10.606 10.607-10.607-10.607-14.142 14.143 10.606 10.606-10.606 10.606z"/><path d="m490.622 363.104c-4.214-13.256-18.865-24.987-41.085-19.411-.057.014-.113.029-.169.044l-89.908 24.236c-3.689-14.203-17.5-23.846-32.478-21.987-5.251.652-22.997 3.174-41.785 5.844-17.898 2.543-36.406 5.173-41.487 5.804-11.13 1.383-26.008.207-41.762-1.039-30.935-2.445-69.437-5.487-103.343 9.027-39.994 17.121-65.488 54.332-77.938 113.761-1.818 8.681.148 17.363 5.394 23.822 4.541 5.589 11.05 8.795 17.859 8.795h92.458c14.283 0 23.853-6.862 27.747-19.867l5.354-10.42 56.713.628c42.341.471 55.758-2.067 95.729-18.095 30.923-12.4 69.515-29.188 100.524-42.678 22.199-9.657 41.371-17.998 48.583-20.709.032-.012.063-.024.095-.036 18.407-7.133 23.742-24.375 19.499-37.719zm-26.684 19.055c-7.719 2.907-26.15 10.925-49.47 21.07-30.891 13.438-69.335 30.163-99.989 42.455-37.598 15.077-48.298 17.099-88.064 16.66l-62.894-.697c-3.768-.042-7.274 2.06-9.005 5.429l-8.632 16.798c-.325.632-.581 1.296-.765 1.982-1.145 4.272-2.318 6.145-8.74 6.145h-92.458c-.748 0-1.621-.525-2.335-1.405-.677-.833-2.164-3.195-1.343-7.112 11.014-52.573 32.678-85.112 66.233-99.476 17.262-7.389 36.217-9.501 55.052-9.501 13.216 0 26.374 1.04 38.845 2.025 16.795 1.327 32.658 2.579 45.802.948 5.256-.652 23.024-3.177 41.836-5.851 17.875-2.54 36.359-5.167 41.436-5.797 5.339-.663 10.229 3.109 10.893 8.412.208 1.656.758 6.054-11.404 11.63-26.091 11.962-53.89 22.199-76.269 28.086-5.341 1.405-8.532 6.874-7.127 12.215 1.405 5.342 6.875 8.534 12.215 7.127 23.442-6.167 52.425-16.827 79.517-29.247 9.408-4.314 15.218-9.34 18.662-14.418l98.551-26.566c10.347-2.57 15.605 1.457 17.078 6.091 1.411 4.442-.401 10.178-7.625 12.997z"/><path d="m255.82 325.787h.299c10.402 0 20.284-4.14 27.841-11.668 7.653-7.624 12.042-18.097 12.042-28.734 0-14.688-8.974-28.976-14.323-36.185-5.376-7.246-15.86-19.401-25.672-19.401s-20.296 12.155-25.672 19.401c-5.349 7.209-14.323 21.497-14.323 36.185 0 10.637 4.389 21.11 12.042 28.734 7.558 7.528 17.439 11.668 27.766 11.668z"/></g></svg>