<svg id="Layer_1" enable-background="new 0 0 512 512" height="512" viewBox="0 0 512 512" width="512" xmlns="http://www.w3.org/2000/svg"><path d="m334.712 241.427c-4.39-32.924-28.725-59.096-59.767-66.972v-82.455h-66v-52h87.247c8.686 0 16.851 3.382 22.992 9.524l64.618 64.618 28.285-28.284-64.617-64.618c-13.697-13.697-31.907-21.24-51.277-21.24h-193.248v40h66v52h-66v82.454c-31.042 7.877-55.376 34.048-59.767 66.972l-25.51 191.321c-2.667 20.001 3.426 40.18 16.718 55.362 13.294 15.183 32.49 23.891 52.669 23.891h203.781c20.179 0 39.375-8.708 52.668-23.89 13.292-15.182 19.385-35.36 16.718-55.362zm-99.767-109.427v40h-92v-40zm78.463 329.761c-5.78 6.603-13.797 10.239-22.572 10.239h-203.781c-8.775 0-16.792-3.636-22.572-10.239-5.78-6.602-8.324-15.028-7.165-23.727l25.51-191.321c2.638-19.789 19.684-34.713 39.649-34.713h132.938c19.965 0 37.011 14.924 39.649 34.714l25.51 191.321c1.159 8.698-1.385 17.124-7.166 23.726zm158.087-257.274c-10.438-15.386-36.55-46.693-36.55-46.693s-26.111 31.307-36.55 46.693c-21.02 30.979-23.45 45.948-23.45 54.513 0 33.084 26.916 60 60 60s60-26.916 60-60c0-8.565-2.43-23.534-23.45-54.513zm-36.55 74.513c-11.028 0-20-8.972-20-19.97.002-.082.468-8.415 16.653-32.237 1.119-1.647 2.24-3.261 3.347-4.824 1.106 1.563 2.228 3.177 3.347 4.824 15.971 23.506 16.636 31.931 16.653 32.229-.011 11.019-8.979 19.978-20 19.978zm-225 44h40v40h-40v40h-40v-40h-40v-40h40v-40h40z"/></svg>