<svg id="Capa_1" enable-background="new 0 0 512.001 512.001" height="512" viewBox="0 0 512.001 512.001" width="512" xmlns="http://www.w3.org/2000/svg"><g><path d="m265.23 364.181c-3.394-8.287-15.631-7.963-18.646.456-3.055 8.529 6.449 16.51 14.341 12.055 4.333-2.446 6.218-7.915 4.305-12.511z"/><path d="m492.627 277.023-68.692-73.584c-1.891-2.025-4.538-3.176-7.31-3.176h-120.471c15.944-26.898 14.26-58.276-5.241-91.89-1.493-2.573-2.86-5.079-4.124-7.525h182.582c5.522 0 10-4.478 10-10s-4.478-10-10-10h-191.102c-4.475-13.535-5.284-24.338-4.715-32.314l193.456-28.64c5.463-.81 9.236-5.894 8.428-11.357s-5.897-9.233-11.357-8.428l-182.31 26.99c-.39-5.981-5.351-10.715-11.43-10.715-8.136 0-11.545 7.747-13.623 14.424l-27.584 4.084c.62-2.709 1.176-4.297 1.291-4.611 1.928-5.148-.665-10.894-5.81-12.852-5.16-1.964-10.938.63-12.902 5.791-.234.615-2.159 5.867-3.401 14.754l-23.988 3.551c-5.463.81-9.236 5.894-8.428 11.357.735 4.967 5.005 8.536 9.88 8.536.487 0 .981-.035 1.478-.108l20.101-2.976c.263 6.739 1.104 14.289 2.855 22.513h-18.26c-5.522 0-10 4.478-10 10s4.478 10 10 10h24.03c3.208 8.818 7.483 18.156 13.134 27.897 9.5 16.375 13.178 29.271 11.576 40.583-1.374 9.696-6.711 19.353-17.144 30.935h-128.17c-2.771 0-5.419 1.15-7.31 3.176l-68.692 73.584c-2.718 2.911-3.449 7.157-1.862 10.81s5.189 6.015 9.172 6.015h64.174l30.017 209.572c.706 4.925 4.924 8.582 9.899 8.582h250.455c4.976 0 9.193-3.657 9.899-8.582l30.017-209.572h64.174c3.982 0 7.585-2.362 9.172-6.015s.854-7.898-1.864-10.809zm-265.421-221.627 26.333-3.898c-.16 8.222.815 18.042 3.903 29.351h-26.745c-2.424-9.661-3.357-18.233-3.491-25.453zm10.244 45.452h27.178c2.474 5.591 5.437 11.445 8.986 17.563 18.523 31.93 17.86 58.748-2.042 81.853h-22.654c17.088-25.472 15.933-49.77-2.507-81.555-3.584-6.179-6.536-12.144-8.961-17.861zm-187.751 172.999 50.021-53.584h135.171l-43.864 53.584zm322.859 218.154h-106.557v-84.4c0-5.522-4.478-10-10-10s-10 4.478-10 10v84.4h-106.558l-28.382-198.154h84.703c2.998 0 5.839-1.346 7.738-3.666l42.498-51.915v90.136c0 5.522 4.478 10 10 10s10-4.478 10-10v-90.136l42.498 51.915c1.899 2.32 4.74 3.666 7.738 3.666h84.703zm-51.584-218.154-43.864-53.584h135.171l50.021 53.584z"/></g></svg>