<svg height="511pt" viewBox="-16 0 511 511.99869" width="511pt" xmlns="http://www.w3.org/2000/svg"><path d="m469.4375 53.890625c9.195312-9.195313 11.816406-22.371094 6.839844-34.382813-4.976563-12.011718-16.144532-19.476562-29.148438-19.476562-9.003906 0-17.601562 3.859375-23.582031 10.59375l-105.375 118.589844c-.886719-.238282-1.777344-.453125-2.671875-.660156l37.8125-85.195313c5.148438-11.601563 2.914062-24.519531-5.832031-33.714844-8.746094-9.195312-21.535157-12.074219-33.378907-7.511719-8.203124 3.15625-14.675781 9.6875-17.765624 17.917969l-34.5 91.996094c-20.785157-16.351563-46.503907-25.394531-73.648438-25.394531-62.445312 0-113.835938 48.207031-118.933594 109.355468h-6.546875c-.152343 0-.300781.023438-.453125.03125-.199218.007813-.398437.015626-.597656.035157-.328125.035156-.648438.09375-.964844.160156-.015625.003906-.03125.003906-.046875.007813-2.652343.5625-5 2.164062-6.453125 4.519531-.339844.558593-.605468 1.148437-.832031 1.746093l-51.792969 103.003907c-2.480468 4.933593-.492187 10.941406 4.441406 13.421875 1.441407.726562 2.976563 1.070312 4.484376 1.070312 3.660156 0 7.1875-2.019531 8.941406-5.511718l37.964844-75.503907 35.292968 247.25c2.09375 14.6875 14.863282 25.761719 29.695313 25.761719h200.707031c14.835938 0 27.601562-11.074219 29.699219-25.761719l35.269531-247.113281 37.898438 75.367188c1.753906 3.492187 5.28125 5.511718 8.941406 5.511718 1.511718 0 3.042968-.34375 4.484375-1.070312 4.933593-2.480469 6.921875-8.492188 4.441406-13.425782l-51.765625-102.945312c-.414062-1.125-1.015625-2.183594-1.820312-3.109375-1.898438-2.1875-4.652344-3.445313-7.550782-3.445313h-6.277344c-1.648437-13.058593-6.460937-25.132812-13.664062-35.433593zm-30.941406-29.980469c2.191406-2.464844 5.335937-3.878906 8.632812-3.878906 7.160156 0 9.976563 5.457031 10.671875 7.128906.691407 1.671875 2.558594 7.523438-2.503906 12.585938l-105.976563 105.976562c-3.621093-3.113281-7.519531-5.90625-11.660156-8.335937zm-123.433594 3.164063c1.082031-2.882813 3.351562-5.171875 6.226562-6.28125 6.246094-2.402344 10.535157 1.40625 11.699219 2.632812 1.167969 1.226563 4.757813 5.703125 2.042969 11.816407l-40.53125 91.316406c-5.285156.203125-10.4375.921875-15.414062 2.109375-.488282-.578125-.980469-1.15625-1.480469-1.722657zm-126.875 79.578125c26.988281 0 52.292969 10.734375 70.917969 29.765625-4.773438 2.648437-9.238281 5.777343-13.351563 9.316406-15.441406-14.753906-36.007812-23.082031-57.566406-23.082031-42.578125 0-77.777344 32.09375-82.734375 73.355468h-16.121094c5.03125-50.105468 47.445313-89.355468 98.855469-89.355468zm-62.5625 89.355468c4.8125-30.199218 31.03125-53.359374 62.5625-53.359374 16.566406 0 32.351562 6.488281 44.136719 17.933593-3.199219 4.582031-5.941407 9.503907-8.128907 14.714844-8.691406-10.175781-21.605468-16.648437-36.007812-16.648437-22.683594 0-41.683594 16.03125-46.285156 37.359374zm62.5625-17.359374c11.558594 0 21.457031 7.207031 25.457031 17.359374h-50.914062c4-10.152343 13.898437-17.359374 25.457031-17.359374zm144.808594 304.765624c-.699219 4.894532-4.957032 8.585938-9.902344 8.585938h-200.707031c-4.945313 0-9.199219-3.691406-9.898438-8.585938l-31.132812-218.113281 24.765625 49.199219c1.695312 3.375 5.152344 5.503906 8.929687 5.503906h67.8125c5.523438 0 10-4.480468 10-10 0-5.523437-4.476562-10-10-10h-61.652343l-42.277344-83.996094h287.449218l-42.234374 83.996094h-61.289063c-5.523437 0-10 4.476563-10 10 0 5.519532 4.476563 10 10 10h67.453125c3.78125 0 7.234375-2.132812 8.933594-5.507812l24.9375-49.597656zm-56.742188-287.40625c3.765625-7.984374 11.890625-13.527343 21.289063-13.527343 9.398437 0 17.523437 5.542969 21.289062 13.527343zm63.640625 0c-4.53125-19.195312-21.792969-33.527343-42.351562-33.527343-20.558594 0-37.820313 14.332031-42.351563 33.527343h-16.316406c4.773438-28.074218 29.253906-49.523437 58.667969-49.523437.53125 0 3.902343.179687 4.152343.160156 27.539063 1.910157 49.96875 22.621094 54.515626 49.363281zm0 0"/><path d="m217.976562 59.390625c1.953126 1.949219 4.511719 2.925781 7.070313 2.925781s5.117187-.976562 7.070313-2.925781c3.90625-3.90625 3.90625-10.238281 0-14.144531l-6.6875-6.6875c-3.90625-3.90625-10.234376-3.902344-14.140626 0-3.90625 3.90625-3.90625 10.238281 0 14.140625zm0 0"/><path d="m141.398438 31.804688c2.558593 0 5.117187-.976563 7.070312-2.929688l5.15625-5.15625c3.90625-3.90625 3.90625-10.238281 0-14.140625-3.90625-3.90625-10.238281-3.90625-14.140625 0l-5.160156 5.15625c-3.902344 3.90625-3.902344 10.234375 0 14.140625 1.953125 1.953125 4.511719 2.929688 7.074219 2.929688zm0 0"/><path d="m93.753906 88.242188c1.953125 1.953124 4.511719 2.929687 7.070313 2.929687 2.558593 0 5.117187-.976563 7.070312-2.929687 3.90625-3.90625 3.90625-10.234376 0-14.140626l-6.082031-6.082031c-3.90625-3.90625-10.238281-3.90625-14.140625 0-3.90625 3.902344-3.90625 10.234375 0 14.140625zm0 0"/><path d="m222.652344 300c-2.628906 0-5.210938 1.070312-7.070313 2.929688-1.859375 1.859374-2.929687 4.4375-2.929687 7.070312 0 2.636719 1.070312 5.207031 2.929687 7.066406 1.859375 1.863282 4.441407 2.933594 7.070313 2.933594s5.210937-1.070312 7.070312-2.933594c1.859375-1.859375 2.929688-4.4375 2.929688-7.066406 0-2.632812-1.070313-5.210938-2.929688-7.070312-1.859375-1.859376-4.429687-2.929688-7.070312-2.929688zm0 0"/></svg>